<mxfile host="drawio-plugin" modified="2023-11-06T08:48:37.819Z" agent="5.0 (X11; Linux x86_64) AppleWebKit/537.36 (KHTML, like Gecko) Chrome/111.0.0.0 Safari/537.36" etag="d-kD7wKF9SIllWeYnrHg" version="20.5.3" type="embed"><diagram id="23iRSUPoRavnBvh4doch" name="Page-1"><mxGraphModel dx="-291" dy="-540" grid="0" gridSize="10" guides="1" tooltips="1" connect="1" arrows="1" fold="1" page="0" pageScale="1" pageWidth="100000" pageHeight="100000" background="#ffffff" math="0" shadow="0"><root><mxCell id="0"/><mxCell id="1" parent="0"/><UserObject label="IS CANE" linkTarget="_blank" id="10"><mxCell style="shape=umlFrame;whiteSpace=wrap;html=1;height=52;fillColor=#FAE5C7;strokeColor=#0F8B8D;fontColor=#143642;width=150;" parent="1" vertex="1"><mxGeometry x="1931" y="1506" width="1315" height="1006" as="geometry"/></mxCell></UserObject><mxCell id="2" value="Zpráva" style="swimlane;fontStyle=1;align=center;verticalAlign=top;childLayout=stackLayout;horizontal=1;startSize=26;horizontalStack=0;resizeParent=1;resizeParentMax=0;resizeLast=0;collapsible=1;marginBottom=0;fillColor=#FAE5C7;strokeColor=#0F8B8D;fontColor=#143642;" parent="1" vertex="1"><mxGeometry x="1989" y="2078" width="206" height="122" as="geometry"><mxRectangle x="2080" y="2160" width="74" height="26" as="alternateBounds"/></mxGeometry></mxCell><mxCell id="43" value="&lt;&lt;PK&gt;&gt; URL" style="text;strokeColor=none;fillColor=none;align=left;verticalAlign=top;spacingLeft=4;spacingRight=4;overflow=hidden;rotatable=0;points=[[0,0.5],[1,0.5]];portConstraint=eastwest;fontColor=#143642;" parent="2" vertex="1"><mxGeometry y="26" width="206" height="24" as="geometry"/></mxCell><mxCell id="45" value="datum  a čas zveřejnění &#10;" style="text;strokeColor=none;fillColor=none;align=left;verticalAlign=top;spacingLeft=4;spacingRight=4;overflow=hidden;rotatable=0;points=[[0,0.5],[1,0.5]];portConstraint=eastwest;fontColor=#143642;" parent="2" vertex="1"><mxGeometry y="50" width="206" height="24" as="geometry"/></mxCell><mxCell id="3" value="autor" style="text;strokeColor=none;fillColor=none;align=left;verticalAlign=top;spacingLeft=4;spacingRight=4;overflow=hidden;rotatable=0;points=[[0,0.5],[1,0.5]];portConstraint=eastwest;fontColor=#143642;" parent="2" vertex="1"><mxGeometry y="74" width="206" height="24" as="geometry"/></mxCell><mxCell id="42" value="datum a čas uložení&#10;" style="text;strokeColor=none;fillColor=none;align=left;verticalAlign=top;spacingLeft=4;spacingRight=4;overflow=hidden;rotatable=0;points=[[0,0.5],[1,0.5]];portConstraint=eastwest;fontColor=#143642;" parent="2" vertex="1"><mxGeometry y="98" width="206" height="24" as="geometry"/></mxCell><mxCell id="83" value="Upřesnění&#10;" style="swimlane;fontStyle=1;align=center;verticalAlign=top;childLayout=stackLayout;horizontal=1;startSize=26;horizontalStack=0;resizeParent=1;resizeParentMax=0;resizeLast=0;collapsible=1;marginBottom=0;fillColor=#FAE5C7;strokeColor=#0F8B8D;fontColor=#143642;" parent="1" vertex="1"><mxGeometry x="2392" y="2291" width="160" height="55" as="geometry"/></mxCell><mxCell id="141" value="text upřesnění" style="text;strokeColor=none;fillColor=none;align=left;verticalAlign=top;spacingLeft=4;spacingRight=4;overflow=hidden;rotatable=0;points=[[0,0.5],[1,0.5]];portConstraint=eastwest;fontColor=#143642;" parent="83" vertex="1"><mxGeometry y="26" width="160" height="29" as="geometry"/></mxCell><mxCell id="97" value="Osoba" style="swimlane;fontStyle=1;align=center;verticalAlign=top;childLayout=stackLayout;horizontal=1;startSize=26;horizontalStack=0;resizeParent=1;resizeParentMax=0;resizeLast=0;collapsible=1;marginBottom=0;fillColor=#FAE5C7;strokeColor=#0F8B8D;fontColor=#143642;" parent="1" vertex="1"><mxGeometry x="2637.5" y="1525" width="160" height="208" as="geometry"/></mxCell><mxCell id="98" value="&lt;&lt;PK&gt;&gt; osobní číslo&#10;" style="text;strokeColor=none;fillColor=none;align=left;verticalAlign=top;spacingLeft=4;spacingRight=4;overflow=hidden;rotatable=0;points=[[0,0.5],[1,0.5]];portConstraint=eastwest;fontColor=#143642;" parent="97" vertex="1"><mxGeometry y="26" width="160" height="26" as="geometry"/></mxCell><mxCell id="102" value="psedonym" style="text;strokeColor=none;fillColor=none;align=left;verticalAlign=top;spacingLeft=4;spacingRight=4;overflow=hidden;rotatable=0;points=[[0,0.5],[1,0.5]];portConstraint=eastwest;fontColor=#143642;" parent="97" vertex="1"><mxGeometry y="52" width="160" height="26" as="geometry"/></mxCell><mxCell id="103" value="jméno, příjmení" style="text;strokeColor=none;fillColor=none;align=left;verticalAlign=top;spacingLeft=4;spacingRight=4;overflow=hidden;rotatable=0;points=[[0,0.5],[1,0.5]];portConstraint=eastwest;fontColor=#143642;" parent="97" vertex="1"><mxGeometry y="78" width="160" height="26" as="geometry"/></mxCell><mxCell id="104" value="email&#10;" style="text;strokeColor=none;fillColor=none;align=left;verticalAlign=top;spacingLeft=4;spacingRight=4;overflow=hidden;rotatable=0;points=[[0,0.5],[1,0.5]];portConstraint=eastwest;fontColor=#143642;" parent="97" vertex="1"><mxGeometry y="104" width="160" height="26" as="geometry"/></mxCell><mxCell id="105" value="telefon" style="text;strokeColor=none;fillColor=none;align=left;verticalAlign=top;spacingLeft=4;spacingRight=4;overflow=hidden;rotatable=0;points=[[0,0.5],[1,0.5]];portConstraint=eastwest;fontColor=#143642;" parent="97" vertex="1"><mxGeometry y="130" width="160" height="26" as="geometry"/></mxCell><mxCell id="106" value="facebook účet" style="text;strokeColor=none;fillColor=none;align=left;verticalAlign=top;spacingLeft=4;spacingRight=4;overflow=hidden;rotatable=0;points=[[0,0.5],[1,0.5]];portConstraint=eastwest;fontColor=#143642;" parent="97" vertex="1"><mxGeometry y="156" width="160" height="26" as="geometry"/></mxCell><mxCell id="94" value="twitter účet" style="text;strokeColor=none;fillColor=none;align=left;verticalAlign=top;spacingLeft=4;spacingRight=4;overflow=hidden;rotatable=0;points=[[0,0.5],[1,0.5]];portConstraint=eastwest;fontColor=#143642;" parent="97" vertex="1"><mxGeometry y="182" width="160" height="26" as="geometry"/></mxCell><mxCell id="118" value="Posudek&#10;" style="swimlane;fontStyle=1;align=center;verticalAlign=top;childLayout=stackLayout;horizontal=1;startSize=26;horizontalStack=0;resizeParent=1;resizeParentMax=0;resizeLast=0;collapsible=1;marginBottom=0;fillColor=#FAE5C7;strokeColor=#0F8B8D;fontColor=#143642;" parent="1" vertex="1"><mxGeometry x="2790" y="2130" width="386" height="152" as="geometry"/></mxCell><mxCell id="238" value="&lt;&lt;PK&gt;&gt; ID" style="text;strokeColor=none;fillColor=none;align=left;verticalAlign=top;spacingLeft=4;spacingRight=4;overflow=hidden;rotatable=0;points=[[0,0.5],[1,0.5]];portConstraint=eastwest;fontColor=#143642;" parent="118" vertex="1"><mxGeometry y="26" width="386" height="24" as="geometry"/></mxCell><mxCell id="311" value="&lt;&lt;PK&gt;&gt; pořadí" style="text;strokeColor=none;fillColor=none;align=left;verticalAlign=top;spacingLeft=4;spacingRight=4;overflow=hidden;rotatable=0;points=[[0,0.5],[1,0.5]];portConstraint=eastwest;fontColor=#143642;" parent="118" vertex="1"><mxGeometry y="50" width="386" height="24" as="geometry"/></mxCell><mxCell id="54" value="odůvodnění&#10;" style="text;strokeColor=none;fillColor=none;align=left;verticalAlign=top;spacingLeft=4;spacingRight=4;overflow=hidden;rotatable=0;points=[[0,0.5],[1,0.5]];portConstraint=eastwest;fontColor=#143642;" parent="118" vertex="1"><mxGeometry y="74" width="386" height="26" as="geometry"/></mxCell><mxCell id="167" value="datum a čas vypracování" style="text;strokeColor=none;fillColor=none;align=left;verticalAlign=top;spacingLeft=4;spacingRight=4;overflow=hidden;rotatable=0;points=[[0,0.5],[1,0.5]];portConstraint=eastwest;fontColor=#143642;" parent="118" vertex="1"><mxGeometry y="100" width="386" height="26" as="geometry"/></mxCell><mxCell id="78" value="hodnocení (pravdiva/nepravdiva/zavadějící/neověřitelna)" style="text;strokeColor=none;fillColor=none;align=left;verticalAlign=top;spacingLeft=4;spacingRight=4;overflow=hidden;rotatable=0;points=[[0,0.5],[1,0.5]];portConstraint=eastwest;fontColor=#143642;" parent="118" vertex="1"><mxGeometry y="126" width="386" height="26" as="geometry"/></mxCell><mxCell id="121" value="Skupina Zpráv&#10;" style="swimlane;fontStyle=1;align=center;verticalAlign=top;childLayout=stackLayout;horizontal=1;startSize=26;horizontalStack=0;resizeParent=1;resizeParentMax=0;resizeLast=0;collapsible=1;marginBottom=0;fillColor=#FAE5C7;strokeColor=#0F8B8D;fontColor=#143642;" parent="1" vertex="1"><mxGeometry x="2456" y="2124" width="160" height="76" as="geometry"/></mxCell><mxCell id="44" value="&lt;&lt;PK&gt;&gt; ID " style="text;strokeColor=none;fillColor=none;align=left;verticalAlign=top;spacingLeft=4;spacingRight=4;overflow=hidden;rotatable=0;points=[[0,0.5],[1,0.5]];portConstraint=eastwest;fontColor=#143642;" parent="121" vertex="1"><mxGeometry y="26" width="160" height="24" as="geometry"/></mxCell><mxCell id="7" value="text (zjednodušený)" style="text;strokeColor=none;fillColor=none;align=left;verticalAlign=top;spacingLeft=4;spacingRight=4;overflow=hidden;rotatable=0;points=[[0,0.5],[1,0.5]];portConstraint=eastwest;fontColor=#143642;" parent="121" vertex="1"><mxGeometry y="50" width="160" height="26" as="geometry"/></mxCell><mxCell id="132" value="Bot" style="swimlane;fontStyle=1;align=center;verticalAlign=top;childLayout=stackLayout;horizontal=1;startSize=26;horizontalStack=0;resizeParent=1;resizeParentMax=0;resizeLast=0;collapsible=1;marginBottom=0;fillColor=#FAE5C7;strokeColor=#0F8B8D;fontColor=#143642;" parent="1" vertex="1"><mxGeometry x="1632" y="2114" width="160" height="52" as="geometry"/></mxCell><mxCell id="16" value="&lt;&lt;PK&gt;&gt; ID&#10;" style="text;strokeColor=none;fillColor=none;align=left;verticalAlign=top;spacingLeft=4;spacingRight=4;overflow=hidden;rotatable=0;points=[[0,0.5],[1,0.5]];portConstraint=eastwest;fontColor=#143642;" parent="132" vertex="1"><mxGeometry y="26" width="160" height="26" as="geometry"/></mxCell><mxCell id="143" value="" style="resizable=0;html=1;align=right;verticalAlign=bottom;fillColor=#FAE5C7;strokeColor=#0F8B8D;fontColor=#143642;" parent="1" connectable="0" vertex="1"><mxGeometry x="2770.996907216495" y="2232" as="geometry"/></mxCell><mxCell id="145" value="" style="endArrow=none;html=1;rounded=0;labelBackgroundColor=default;strokeColor=#A8201A;fontFamily=Helvetica;fontSize=11;fontColor=#143642;fillColor=#FAE5C7;shape=connector;elbow=vertical;startArrow=ERmany;startFill=0;" parent="1" source="2" target="121" edge="1"><mxGeometry relative="1" as="geometry"><mxPoint x="2296" y="2154" as="sourcePoint"/><mxPoint x="2456" y="2154" as="targetPoint"/></mxGeometry></mxCell><mxCell id="146" value="0...*" style="resizable=0;html=1;align=left;verticalAlign=bottom;strokeColor=#0F8B8D;fontFamily=Helvetica;fontSize=11;fontColor=#143642;fillColor=#FAE5C7;" parent="145" connectable="0" vertex="1"><mxGeometry x="-1" relative="1" as="geometry"><mxPoint x="11" y="-4" as="offset"/></mxGeometry></mxCell><mxCell id="154" value="" style="endArrow=none;html=1;rounded=0;labelBackgroundColor=default;strokeColor=#A8201A;fontFamily=Helvetica;fontSize=11;fontColor=#143642;fillColor=#FAE5C7;shape=connector;elbow=vertical;startArrow=ERmany;startFill=0;" parent="1" source="2" target="97" edge="1"><mxGeometry relative="1" as="geometry"><mxPoint x="2341" y="2042.001666666667" as="sourcePoint"/><mxPoint x="2320" y="1831.0000000000002" as="targetPoint"/></mxGeometry></mxCell><mxCell id="155" value="1...*" style="resizable=0;html=1;align=left;verticalAlign=bottom;strokeColor=#0F8B8D;fontFamily=Helvetica;fontSize=11;fontColor=#143642;fillColor=#FAE5C7;" parent="154" connectable="0" vertex="1"><mxGeometry x="-1" relative="1" as="geometry"><mxPoint x="2" y="-25" as="offset"/></mxGeometry></mxCell><mxCell id="156" value="0...1" style="resizable=0;html=1;align=right;verticalAlign=bottom;strokeColor=#0F8B8D;fontFamily=Helvetica;fontSize=11;fontColor=#143642;fillColor=#FAE5C7;" parent="154" connectable="0" vertex="1"><mxGeometry x="1" relative="1" as="geometry"><mxPoint x="-10" y="10" as="offset"/></mxGeometry></mxCell><mxCell id="184" value="" style="endArrow=ERmany;html=1;rounded=0;labelBackgroundColor=default;strokeColor=#A8201A;fontFamily=Helvetica;fontSize=11;fontColor=#143642;fillColor=#FAE5C7;shape=connector;elbow=vertical;startArrow=none;startFill=0;endFill=0;" parent="1" source="293" target="2" edge="1"><mxGeometry relative="1" as="geometry"><mxPoint x="2251.6964285714284" y="2096" as="sourcePoint"/><mxPoint x="2548" y="2018.2872531418313" as="targetPoint"/></mxGeometry></mxCell><mxCell id="195" value="" style="endArrow=ERmany;html=1;rounded=0;labelBackgroundColor=default;strokeColor=#A8201A;fontFamily=Helvetica;fontSize=11;fontColor=#143642;fillColor=#FAE5C7;shape=connector;elbow=vertical;startArrow=ERmany;startFill=0;endFill=0;" parent="1" source="201" target="118" edge="1"><mxGeometry relative="1" as="geometry"><mxPoint x="2977.063694267516" y="2342" as="sourcePoint"/><mxPoint x="2545" y="2201.6356589147285" as="targetPoint"/></mxGeometry></mxCell><mxCell id="197" value="0...*" style="resizable=0;html=1;align=right;verticalAlign=bottom;strokeColor=#0F8B8D;fontFamily=Helvetica;fontSize=11;fontColor=#143642;fillColor=#FAE5C7;" parent="195" connectable="0" vertex="1"><mxGeometry x="1" relative="1" as="geometry"><mxPoint x="-7" y="19" as="offset"/></mxGeometry></mxCell><mxCell id="199" value="nejčastější znění&amp;nbsp;" style="text;html=1;strokeColor=none;fillColor=none;align=center;verticalAlign=middle;whiteSpace=wrap;rounded=0;fontColor=#143642;rotation=0;" parent="1" vertex="1"><mxGeometry x="2530.5" y="1996" width="105" height="30" as="geometry"/></mxCell><mxCell id="201" value="oblast" style="swimlane;fontStyle=1;align=center;verticalAlign=top;childLayout=stackLayout;horizontal=1;startSize=26;horizontalStack=0;resizeParent=1;resizeParentMax=0;resizeLast=0;collapsible=1;marginBottom=0;fillColor=#FAE5C7;strokeColor=#0F8B8D;fontColor=#143642;" parent="1" vertex="1"><mxGeometry x="2907" y="2373" width="160" height="108" as="geometry"/></mxCell><mxCell id="239" value="&lt;&lt;PK&gt;&gt; ID " style="text;strokeColor=none;fillColor=none;align=left;verticalAlign=top;spacingLeft=4;spacingRight=4;overflow=hidden;rotatable=0;points=[[0,0.5],[1,0.5]];portConstraint=eastwest;fontColor=#143642;" parent="201" vertex="1"><mxGeometry y="26" width="160" height="24" as="geometry"/></mxCell><mxCell id="202" value="název" style="text;strokeColor=none;fillColor=none;align=left;verticalAlign=top;spacingLeft=4;spacingRight=4;overflow=hidden;rotatable=0;points=[[0,0.5],[1,0.5]];portConstraint=eastwest;fontColor=#143642;" parent="201" vertex="1"><mxGeometry y="50" width="160" height="29" as="geometry"/></mxCell><mxCell id="204" value="popis" style="text;strokeColor=none;fillColor=none;align=left;verticalAlign=top;spacingLeft=4;spacingRight=4;overflow=hidden;rotatable=0;points=[[0,0.5],[1,0.5]];portConstraint=eastwest;fontColor=#143642;" parent="201" vertex="1"><mxGeometry y="79" width="160" height="29" as="geometry"/></mxCell><mxCell id="216" value="" style="endArrow=none;html=1;rounded=0;labelBackgroundColor=default;strokeColor=#A8201A;fontFamily=Helvetica;fontSize=11;fontColor=#143642;fillColor=#FAE5C7;shape=connector;elbow=vertical;startArrow=ERmany;startFill=0;endFill=0;" parent="1" source="118" target="121" edge="1"><mxGeometry relative="1" as="geometry"><mxPoint x="2665.844375" y="2217" as="sourcePoint"/><mxPoint x="2608.003229166667" y="2084" as="targetPoint"/></mxGeometry></mxCell><mxCell id="217" value="0...*" style="resizable=0;html=1;align=left;verticalAlign=bottom;strokeColor=#0F8B8D;fontFamily=Helvetica;fontSize=11;fontColor=#143642;fillColor=#FAE5C7;" parent="216" connectable="0" vertex="1"><mxGeometry x="-1" relative="1" as="geometry"><mxPoint x="-29" y="-8" as="offset"/></mxGeometry></mxCell><mxCell id="218" value="1" style="resizable=0;html=1;align=right;verticalAlign=bottom;strokeColor=#0F8B8D;fontFamily=Helvetica;fontSize=11;fontColor=#143642;fillColor=#FAE5C7;" parent="216" connectable="0" vertex="1"><mxGeometry x="1" relative="1" as="geometry"><mxPoint x="30" y="-2" as="offset"/></mxGeometry></mxCell><mxCell id="219" value="0...*" style="resizable=0;html=1;align=right;verticalAlign=bottom;strokeColor=#0F8B8D;fontFamily=Helvetica;fontSize=11;fontColor=#143642;fillColor=#FAE5C7;" parent="1" connectable="0" vertex="1"><mxGeometry x="2974.002562678888" y="2327.9969081283225" as="geometry"><mxPoint y="32" as="offset"/></mxGeometry></mxCell><mxCell id="232" value="" style="endArrow=none;html=1;rounded=0;labelBackgroundColor=default;strokeColor=#A8201A;fontFamily=Helvetica;fontSize=11;fontColor=#143642;fillColor=#FAE5C7;shape=connector;elbow=vertical;startArrow=none;startFill=0;endFill=0;exitX=0;exitY=0.5;exitDx=0;exitDy=0;entryX=1.003;entryY=0.903;entryDx=0;entryDy=0;entryPerimeter=0;" parent="1" edge="1"><mxGeometry relative="1" as="geometry"><mxPoint x="2790" y="2268" as="sourcePoint"/><mxPoint x="2195.618" y="2196.672" as="targetPoint"/></mxGeometry></mxCell><mxCell id="233" value="0...1" style="resizable=0;html=1;align=left;verticalAlign=bottom;strokeColor=#0F8B8D;fontFamily=Helvetica;fontSize=11;fontColor=#143642;fillColor=#FAE5C7;" parent="232" connectable="0" vertex="1"><mxGeometry x="-1" relative="1" as="geometry"><mxPoint x="-38" y="-9" as="offset"/></mxGeometry></mxCell><mxCell id="234" value="0...1" style="resizable=0;html=1;align=right;verticalAlign=bottom;strokeColor=#0F8B8D;fontFamily=Helvetica;fontSize=11;fontColor=#143642;fillColor=#FAE5C7;" parent="232" connectable="0" vertex="1"><mxGeometry x="1" relative="1" as="geometry"><mxPoint x="41" y="28" as="offset"/></mxGeometry></mxCell><mxCell id="240" value="" style="endArrow=none;html=1;rounded=0;labelBackgroundColor=default;strokeColor=#A8201A;fontFamily=Helvetica;fontSize=11;fontColor=#143642;fillColor=#FAE5C7;shape=connector;elbow=vertical;startArrow=ERmany;startFill=0;endFill=0;exitX=0.5;exitY=0;exitDx=0;exitDy=0;" parent="1" source="118" target="97" edge="1"><mxGeometry relative="1" as="geometry"><mxPoint x="3004" y="2114" as="sourcePoint"/><mxPoint x="3004.8073394495414" y="1924" as="targetPoint"/></mxGeometry></mxCell><mxCell id="241" value="0...*" style="resizable=0;html=1;align=left;verticalAlign=bottom;strokeColor=#0F8B8D;fontFamily=Helvetica;fontSize=11;fontColor=#143642;fillColor=#FAE5C7;" parent="240" connectable="0" vertex="1"><mxGeometry x="-1" relative="1" as="geometry"><mxPoint x="14" y="-10" as="offset"/></mxGeometry></mxCell><mxCell id="242" value="0...1" style="resizable=0;html=1;align=right;verticalAlign=bottom;strokeColor=#0F8B8D;fontFamily=Helvetica;fontSize=11;fontColor=#143642;fillColor=#FAE5C7;" parent="240" connectable="0" vertex="1"><mxGeometry x="1" relative="1" as="geometry"><mxPoint x="38" y="22" as="offset"/></mxGeometry></mxCell><mxCell id="246" value="" style="endArrow=none;html=1;rounded=0;labelBackgroundColor=default;strokeColor=#A8201A;fontFamily=Helvetica;fontSize=11;fontColor=#143642;fillColor=#FAE5C7;shape=connector;elbow=vertical;startArrow=ERmany;startFill=0;" parent="1" source="2" target="132" edge="1"><mxGeometry relative="1" as="geometry"><mxPoint x="1867" y="2217.9998795180722" as="sourcePoint"/><mxPoint x="1873" y="2202" as="targetPoint"/></mxGeometry></mxCell><mxCell id="247" value="0...*" style="resizable=0;html=1;align=left;verticalAlign=bottom;strokeColor=#0F8B8D;fontFamily=Helvetica;fontSize=11;fontColor=#143642;fillColor=#FAE5C7;" parent="246" connectable="0" vertex="1"><mxGeometry x="-1" relative="1" as="geometry"><mxPoint x="-26" y="-4" as="offset"/></mxGeometry></mxCell><mxCell id="248" value="1" style="resizable=0;html=1;align=right;verticalAlign=bottom;strokeColor=#0F8B8D;fontFamily=Helvetica;fontSize=11;fontColor=#143642;fillColor=#FAE5C7;" parent="246" connectable="0" vertex="1"><mxGeometry x="1" relative="1" as="geometry"><mxPoint x="14" y="-2" as="offset"/></mxGeometry></mxCell><mxCell id="249" value="našel" style="text;html=1;strokeColor=none;fillColor=none;align=center;verticalAlign=middle;whiteSpace=wrap;rounded=0;fontColor=#143642;rotation=0;" parent="1" vertex="1"><mxGeometry x="1841" y="2144" width="100.5" height="30" as="geometry"/></mxCell><mxCell id="250" value="seskupuje" style="text;html=1;strokeColor=none;fillColor=none;align=center;verticalAlign=middle;whiteSpace=wrap;rounded=0;fontColor=#143642;rotation=0;" parent="1" vertex="1"><mxGeometry x="2300" y="2118" width="100.5" height="30" as="geometry"/></mxCell><mxCell id="257" value="" style="fontSize=12;html=1;endArrow=none;endFill=0;rounded=0;strokeColor=#363636;dashed=1;" parent="1" source="83" edge="1"><mxGeometry width="100" height="100" relative="1" as="geometry"><mxPoint x="2236" y="2380" as="sourcePoint"/><mxPoint x="2483" y="2230" as="targetPoint"/></mxGeometry></mxCell><mxCell id="258" value="je posuzována" style="text;html=1;strokeColor=none;fillColor=none;align=center;verticalAlign=middle;whiteSpace=wrap;rounded=0;fontColor=#143642;rotation=0;" parent="1" vertex="1"><mxGeometry x="2656" y="2144" width="100.5" height="30" as="geometry"/></mxCell><mxCell id="261" value="patri do" style="text;html=1;strokeColor=none;fillColor=none;align=center;verticalAlign=middle;whiteSpace=wrap;rounded=0;fontColor=#143642;rotation=0;" parent="1" vertex="1"><mxGeometry x="2982" y="2314.5" width="100.5" height="27" as="geometry"/></mxCell><mxCell id="268" value="Konečný posudek" style="swimlane;fontStyle=1;align=center;verticalAlign=top;childLayout=stackLayout;horizontal=1;startSize=34;horizontalStack=0;resizeParent=1;resizeParentMax=0;resizeLast=0;collapsible=1;marginBottom=0;fillColor=#FAE5C7;strokeColor=#0F8B8D;fontColor=#143642;" parent="1" vertex="1"><mxGeometry x="2616" y="1874" width="222" height="108" as="geometry"/></mxCell><mxCell id="237" value="&lt;&lt;PK&gt;&gt; název" style="text;strokeColor=none;fillColor=none;align=left;verticalAlign=top;spacingLeft=4;spacingRight=4;overflow=hidden;rotatable=0;points=[[0,0.5],[1,0.5]];portConstraint=eastwest;fontColor=#143642;" parent="268" vertex="1"><mxGeometry y="34" width="222" height="24" as="geometry"/></mxCell><mxCell id="277" value="shrnutí hodnocení" style="text;strokeColor=none;fillColor=none;align=left;verticalAlign=top;spacingLeft=4;spacingRight=4;overflow=hidden;rotatable=0;points=[[0,0.5],[1,0.5]];portConstraint=eastwest;fontColor=#143642;" parent="268" vertex="1"><mxGeometry y="58" width="222" height="26" as="geometry"/></mxCell><mxCell id="308" value="první datum a čas prvního výskytu&#10;" style="text;strokeColor=none;fillColor=none;align=left;verticalAlign=top;spacingLeft=4;spacingRight=4;overflow=hidden;rotatable=0;points=[[0,0.5],[1,0.5]];portConstraint=eastwest;fontColor=#143642;" parent="268" vertex="1"><mxGeometry y="84" width="222" height="24" as="geometry"/></mxCell><mxCell id="270" value="dostal k zpracování" style="text;align=center;fontStyle=0;verticalAlign=middle;spacingLeft=3;spacingRight=3;strokeColor=none;rotatable=0;points=[[0,0.5],[1,0.5]];portConstraint=eastwest;fontColor=#1C1C1C;" parent="1" vertex="1"><mxGeometry x="2922" y="1968" width="74" height="14" as="geometry"/></mxCell><mxCell id="275" value="" style="endArrow=block;endSize=16;endFill=0;html=1;rounded=0;fontColor=#1C1C1C;strokeColor=#191919;" parent="1" source="268" target="118" edge="1"><mxGeometry width="160" relative="1" as="geometry"><mxPoint x="2822" y="2026" as="sourcePoint"/><mxPoint x="2982" y="2026" as="targetPoint"/></mxGeometry></mxCell><mxCell id="279" value="1..*" style="resizable=0;html=1;align=left;verticalAlign=bottom;strokeColor=#0F8B8D;fontFamily=Helvetica;fontSize=11;fontColor=#143642;fillColor=#FAE5C7;" parent="1" connectable="0" vertex="1"><mxGeometry x="2218" y="2102.001578947368" as="geometry"><mxPoint x="-11" y="-7" as="offset"/></mxGeometry></mxCell><mxCell id="276" value="" style="resizable=0;html=1;align=right;verticalAlign=bottom;strokeColor=#0F8B8D;fontFamily=Helvetica;fontSize=11;fontColor=#143642;fillColor=#FAE5C7;" parent="1" connectable="0" vertex="1"><mxGeometry x="2669" y="1831" width="160" as="geometry"><mxPoint x="-98" y="-2" as="offset"/></mxGeometry></mxCell><mxCell id="283" value="autorem" style="text;align=center;fontStyle=0;verticalAlign=middle;spacingLeft=3;spacingRight=3;strokeColor=none;rotatable=0;points=[[0,0.5],[1,0.5]];portConstraint=eastwest;fontColor=#1C1C1C;" parent="1" vertex="1"><mxGeometry x="2364" y="1863" width="50" height="24" as="geometry"/></mxCell><mxCell id="293" value="Přený Text" style="swimlane;fontStyle=1;align=center;verticalAlign=top;childLayout=stackLayout;horizontal=1;startSize=23;horizontalStack=0;resizeParent=1;resizeParentMax=0;resizeLast=0;collapsible=1;marginBottom=0;fillColor=#FAE5C7;strokeColor=#0F8B8D;fontColor=#143642;rotation=0;" parent="1" vertex="1"><mxGeometry x="2329.5" y="1995" width="160" height="76" as="geometry"/></mxCell><mxCell id="307" value="&lt;&lt;PK&gt;&gt; ID " style="text;strokeColor=none;fillColor=none;align=left;verticalAlign=top;spacingLeft=4;spacingRight=4;overflow=hidden;rotatable=0;points=[[0,0.5],[1,0.5]];portConstraint=eastwest;fontColor=#143642;" parent="293" vertex="1"><mxGeometry y="23" width="160" height="24" as="geometry"/></mxCell><mxCell id="294" value="odkaz na uložený text" style="text;strokeColor=none;fillColor=none;align=left;verticalAlign=top;spacingLeft=4;spacingRight=4;overflow=hidden;rotatable=0;points=[[0,0.5],[1,0.5]];portConstraint=eastwest;fontColor=#143642;" parent="293" vertex="1"><mxGeometry y="47" width="160" height="29" as="geometry"/></mxCell><mxCell id="295" value="" style="endArrow=none;html=1;rounded=0;labelBackgroundColor=default;strokeColor=#A8201A;fontFamily=Helvetica;fontSize=11;fontColor=#143642;fillColor=#FAE5C7;shape=connector;elbow=vertical;startArrow=none;startFill=0;" parent="1" source="293" target="268" edge="1"><mxGeometry relative="1" as="geometry"><mxPoint x="2205" y="2184.0984682713347" as="sourcePoint"/><mxPoint x="2479" y="2181.7002188183806" as="targetPoint"/></mxGeometry></mxCell><mxCell id="296" value="0...1" style="resizable=0;html=1;align=left;verticalAlign=bottom;strokeColor=#0F8B8D;fontFamily=Helvetica;fontSize=11;fontColor=#143642;fillColor=#FAE5C7;" parent="295" connectable="0" vertex="1"><mxGeometry x="-1" relative="1" as="geometry"><mxPoint x="4" y="-16" as="offset"/></mxGeometry></mxCell><mxCell id="301" value="1" style="resizable=0;html=1;align=right;verticalAlign=bottom;strokeColor=#0F8B8D;fontFamily=Helvetica;fontSize=11;fontColor=#143642;fillColor=#FAE5C7;" parent="1" connectable="0" vertex="1"><mxGeometry x="2341.001988142446" y="2065.9998025445275" as="geometry"><mxPoint x="-19" y="-13" as="offset"/></mxGeometry></mxCell><mxCell id="306" value="znění" style="text;html=1;strokeColor=none;fillColor=none;align=center;verticalAlign=middle;whiteSpace=wrap;rounded=0;fontColor=#143642;rotation=0;" parent="1" vertex="1"><mxGeometry x="2246" y="2049" width="46.5" height="19" as="geometry"/></mxCell><mxCell id="309" value="0...1" style="resizable=0;html=1;align=left;verticalAlign=bottom;strokeColor=#0F8B8D;fontFamily=Helvetica;fontSize=11;fontColor=#143642;fillColor=#FAE5C7;rotation=0;" parent="1" connectable="0" vertex="1"><mxGeometry x="2583" y="1960.998070444104" as="geometry"/></mxCell><mxCell id="310" value="0...1" style="resizable=0;html=1;align=left;verticalAlign=bottom;strokeColor=#0F8B8D;fontFamily=Helvetica;fontSize=11;fontColor=#143642;fillColor=#FAE5C7;" parent="1" connectable="0" vertex="1"><mxGeometry x="2421" y="2149.9955855855856" as="geometry"/></mxCell></root></mxGraphModel></diagram></mxfile>